<?xml version="1.0" standalone="no"?>
<!DOCTYPE svg PUBLIC "-//W3C//DTD SVG 20010904//EN"
 "http://www.w3.org/TR/2001/REC-SVG-20010904/DTD/svg10.dtd">
<svg version="1.0" xmlns="http://www.w3.org/2000/svg"
 width="157.000000pt" height="157.000000pt" viewBox="0 0 157.000000 157.000000"
 preserveAspectRatio="xMidYMid meet">
<metadata>
Created by potrace 1.11, written by Peter Selinger 2001-2013
</metadata>
<g transform="translate(0.000000,157.000000) scale(0.100000,-0.100000)"
fill="#000000" stroke="none">
<path d="M764 1325 c17 -41 17 -49 0 -27 -17 22 -44 30 -44 12 0 -5 -7 -6 -17
-3 -9 4 -14 2 -10 -3 6 -10 -14 -14 -65 -14 -24 0 -28 -4 -28 -30 0 -16 -4
-30 -10 -30 -5 0 -10 5 -10 10 0 6 -4 10 -9 10 -5 0 -8 -11 -8 -24 0 -14 -15
-39 -37 -60 -20 -20 -36 -44 -36 -52 0 -30 -43 -76 -88 -97 -62 -27 -136 -98
-192 -184 -53 -80 -67 -120 -49 -137 9 -8 10 -8 4 2 -11 21 51 134 107 194 32
34 44 42 32 23 -10 -16 -40 -66 -67 -110 -64 -107 -72 -146 -29 -144 11 0 12
3 5 6 -7 2 -13 12 -13 21 0 11 9 5 26 -16 24 -28 75 -47 59 -22 -3 6 -2 10 4
10 5 0 11 -6 14 -12 3 -10 7 -10 20 1 15 12 17 11 17 -8 0 -30 17 -26 35 9 19
37 19 53 -1 20 -11 -19 -14 -21 -10 -5 15 64 40 133 47 129 5 -3 4 -15 -1 -29
-13 -35 -1 -92 21 -98 15 -4 19 0 19 25 0 40 16 27 23 -19 9 -56 69 -172 115
-223 82 -94 205 -132 294 -92 84 37 158 119 217 240 36 73 51 139 52 227 1
174 -50 306 -151 390 -33 26 -61 54 -64 62 -4 9 -13 12 -25 8 -14 -4 -23 0
-30 13 -11 20 -58 36 -63 21 -2 -5 -16 -2 -32 6 -25 13 -27 13 -22 0z m86 -48
c0 -5 -4 -5 -10 -2 -5 3 -10 14 -10 23 0 15 2 15 10 2 5 -8 10 -19 10 -23z
m18 8 c-3 -3 -9 2 -12 12 -6 14 -5 15 5 6 7 -7 10 -15 7 -18z m-92 -52 c13
-29 18 -34 21 -20 5 18 5 18 20 0 13 -17 14 -16 8 10 -4 19 -2 26 5 22 5 -3
10 -12 10 -20 0 -8 5 -17 11 -21 9 -5 10 1 5 22 -6 28 -6 28 9 9 9 -11 19 -20
23 -20 45 -4 165 -113 202 -185 11 -21 20 -41 20 -42 0 -2 -45 -3 -99 -3 -87
0 -124 -6 -110 -19 2 -2 37 1 77 6 41 6 89 7 107 4 29 -6 35 -12 41 -42 4 -20
3 -39 -2 -44 -5 -4 -50 -11 -101 -15 l-92 -7 -7 40 c-5 29 -10 39 -23 36 -71
-13 -80 -13 -85 4 -3 9 -3 -4 0 -29 l5 -46 -53 -7 c-29 -3 -70 -9 -90 -12 -32
-6 -38 -4 -38 11 0 10 -3 16 -6 12 -3 -3 -3 -14 0 -24 6 -18 9 -19 99 -4 86
15 92 18 96 41 4 30 17 40 54 40 21 0 27 -5 27 -22 0 -47 11 -51 121 -47 l104
4 -3 -65 c-2 -36 -10 -89 -18 -117 -13 -49 -17 -53 -42 -49 -33 4 -65 17 -73
28 -9 13 -48 21 -129 25 -83 3 -110 -4 -185 -52 -61 -39 -83 -47 -90 -34 -4 5
-11 7 -16 4 -5 -4 -9 1 -9 11 0 9 -7 22 -15 28 -9 6 -17 23 -19 36 -1 14 -8
36 -16 50 -25 46 -44 149 -33 178 6 13 33 12 91 -4 9 -2 4 2 -13 10 -16 8 -43
15 -60 16 -21 0 -26 3 -16 9 7 5 10 14 7 20 -4 6 0 11 10 11 13 0 14 3 4 15
-9 11 -10 15 -1 15 8 0 10 8 6 20 -5 16 -3 19 11 13 13 -5 15 -2 10 14 -4 12
1 27 14 41 11 11 20 26 20 31 0 6 7 14 17 19 10 6 14 16 10 26 -4 9 -2 16 3
16 6 0 10 10 10 22 0 17 3 19 12 10 19 -19 30 -14 23 11 -5 17 -4 19 4 6 6 -9
25 -16 47 -17 34 -1 36 0 30 23 -8 32 2 32 14 0 5 -14 14 -25 20 -25 6 0 6 9
0 26 -11 29 -12 34 -5 34 3 0 12 -17 21 -37z m-381 -329 c-22 -33 -85 -182
-85 -202 0 -5 -8 -16 -17 -23 -15 -13 -16 -11 -10 19 11 57 110 242 129 242 4
0 -4 -16 -17 -36z m-121 -129 c-35 -69 -54 -98 -54 -80 0 11 82 156 86 152 2
-1 -13 -34 -32 -72z m94 -24 c-12 -52 -48 -103 -48 -68 0 18 52 129 57 123 2
-2 -2 -26 -9 -55z m69 2 c-3 -10 -5 -4 -5 12 0 17 2 24 5 18 2 -7 2 -21 0 -30z
m-157 -17 c-5 -15 -10 -38 -10 -52 0 -13 -5 -24 -10 -24 -6 0 -8 12 -4 28 8
38 26 83 31 79 2 -2 -1 -16 -7 -31z m705 -110 c72 -21 85 -27 85 -40 0 -24
-89 -140 -137 -178 -62 -49 -111 -63 -171 -48 -63 16 -111 42 -150 83 -29 30
-32 38 -23 56 7 12 19 21 27 21 9 0 14 6 11 13 -4 13 49 57 70 57 7 0 13 5 13
10 0 6 6 10 14 10 8 0 16 5 18 11 10 29 150 33 243 5z m-408 -88 c-3 -8 -6 -5
-6 6 -1 11 2 17 5 13 3 -3 4 -12 1 -19z m3 -34 c0 -8 -5 -12 -10 -9 -6 4 -8
11 -5 16 9 14 15 11 15 -7z"/>
<path d="M685 970 l-50 -7 45 -1 c25 0 65 3 90 7 l45 8 -40 0 c-22 0 -62 -3
-90 -7z"/>
<path d="M622 920 c0 -19 2 -27 5 -17 2 9 2 25 0 35 -3 9 -5 1 -5 -18z"/>
<path d="M877 534 c-33 -28 -63 -30 -96 -7 -18 12 -23 13 -19 2 7 -21 56 -42
83 -35 30 8 81 51 69 58 -5 4 -22 -5 -37 -18z"/>
<path d="M50 655 c-7 -8 -10 -31 -8 -51 3 -29 -1 -42 -20 -61 -19 -19 -22 -30
-17 -51 4 -15 11 -43 15 -63 12 -64 44 -103 94 -118 83 -24 149 17 159 98 7
58 -12 95 -64 121 -26 14 -50 37 -67 67 -45 75 -66 89 -92 58z m68 -58 c20
-36 42 -59 64 -70 70 -33 79 -58 59 -169 -2 -13 -59 -38 -87 -38 -21 0 -24 3
-16 13 7 7 10 31 8 53 -2 21 2 52 7 68 9 25 7 32 -13 48 -12 10 -30 18 -40 18
-12 0 -20 14 -30 54 -12 51 -9 76 10 76 4 0 22 -24 38 -53z m-46 -76 c8 -10
25 -21 38 -23 14 -1 25 -10 25 -18 0 -23 -67 -25 -95 -2 -19 16 -21 22 -11 40
14 27 26 28 43 3z m58 -80 c0 -23 -62 -28 -80 -6 -11 13 -6 15 34 15 25 0 46
-4 46 -9z m0 -40 c0 -32 -71 -38 -84 -6 -4 12 4 15 39 15 25 0 45 -4 45 -9z
m-11 -56 c-10 -10 -22 -13 -34 -9 -18 7 -18 8 1 15 10 4 26 8 34 8 12 1 12 -1
-1 -14z"/>
<path d="M1348 638 c-8 -13 -18 -32 -24 -43 -6 -11 -35 -38 -64 -61 -30 -22
-57 -49 -61 -60 -13 -32 -10 -139 4 -155 31 -39 117 -67 117 -39 0 6 -12 10
-27 10 -29 0 -93 44 -93 64 0 8 7 17 17 20 15 6 15 7 -1 19 -24 18 -11 72 25
100 16 12 43 33 60 46 17 14 38 39 45 57 27 65 54 52 54 -26 0 -46 -15 -71
-64 -104 -17 -11 -17 -18 -7 -64 6 -28 8 -64 5 -79 -7 -34 16 -59 66 -73 28
-8 35 -6 56 17 42 45 71 115 72 171 2 61 -13 79 -69 88 -39 7 -39 7 -39 54 0
69 -45 105 -72 58z m160 -152 c21 -21 2 -63 -34 -76 -62 -24 -145 -3 -131 34
5 12 19 16 52 16 28 0 44 4 40 10 -3 6 -15 10 -27 10 -18 0 -19 2 -7 16 16 20
84 13 107 -10z m-3 -106 c-22 -25 -111 -28 -141 -5 -17 13 -15 14 26 9 25 -3
59 -1 75 5 50 16 60 14 40 -9z m-56 -40 c43 0 44 0 26 -20 -22 -24 -62 -26
-93 -4 -29 20 -29 38 1 30 12 -3 42 -6 66 -6z m-36 -55 c26 -7 38 -25 17 -25
-27 0 -80 31 -80 46 0 16 2 16 18 1 9 -8 29 -19 45 -22z"/>
</g>
</svg>
